<svg id="Layer_1" data-name="Layer 1" xmlns="http://www.w3.org/2000/svg" xmlns:xlink="http://www.w3.org/1999/xlink" viewBox="0 0 1272.96 728.15"><defs><style>.cls-1,.cls-3{fill:none;}.cls-2,.cls-8{fill:#fff;}.cls-3{stroke:#fff;stroke-miterlimit:10;stroke-width:8px;}.cls-4{clip-path:url(#clip-path);}.cls-5{clip-path:url(#clip-path-2);}.cls-6{clip-path:url(#clip-path-3);}.cls-7{clip-path:url(#clip-path-4);}.cls-8{font-size:75px;font-family:Broadway;}.cls-9{clip-path:url(#clip-path-5);}.cls-10{clip-path:url(#clip-path-6);}</style><clipPath id="clip-path" transform="translate(-377.46 -708.99)"><polygon class="cls-1" points="973.88 792.25 973.88 792.25 1008.12 792.25 1008.12 878.27 973.88 878.27 973.88 792.25"/></clipPath><clipPath id="clip-path-2" transform="translate(-377.46 -708.99)"><polygon class="cls-1" points="1055.02 792.25 1055.02 792.25 1020.77 792.25 1020.77 878.27 1055.02 878.27 1055.02 792.25"/></clipPath><clipPath id="clip-path-3" transform="translate(-377.46 -708.99)"><polygon class="cls-1" points="1052.18 749.8 1052.18 749.8 1650.41 749.8 1650.41 1379.37 1052.18 1379.37 1052.18 749.8"/></clipPath><clipPath id="clip-path-4" transform="translate(-377.46 -708.99)"><polygon class="cls-1" points="975.69 749.8 975.69 749.8 377.46 749.8 377.46 1379.37 975.69 1379.37 975.69 749.8"/></clipPath><clipPath id="clip-path-5" transform="translate(-377.46 -708.99)"><polygon class="cls-1" points="985 1306.02 985 1306.02 996.43 1306.02 996.43 1415.55 985 1415.55 985 1306.02"/></clipPath><clipPath id="clip-path-6" transform="translate(-377.46 -708.99)"><polygon class="cls-1" points="1042.87 1306.02 1042.87 1306.02 1031.44 1306.02 1031.44 1415.55 1042.87 1415.55 1042.87 1306.02"/></clipPath></defs><path class="cls-2" d="M1240,1003.46a55.73,55.73,0,0,1-25.55-.43V967.08l-3.22-1.09q-16.71,32.94-33.4,65.86h-24.63c-11.86-22.71-23.76-45.47-37.92-72.57v76.53c-9.32,4.56-17.59,1.62-26.8,2.65V896.58h25.66l51.29,104.22c17.07-36.24,33.18-70.42,49.19-104.42H1240Z" transform="translate(-377.46 -708.99)"/><path class="cls-2" d="M1338.72,944.35v59.48h-25.6V896.57h25.38l65.15,92.57V897.58c10.06-2.38,18-2.07,27-.46v140.52h-26.47Z" transform="translate(-377.46 -708.99)"/><path class="cls-2" d="M1437.7,1038.3V982.71c8.44-2.56,17-1.75,26.73-.27v28.75c19,2,35.37-1.16,45.85-16.91,10.94-16.44,10.68-34.73,1-51.71-9.87-17.39-26.81-20.79-46.36-19.79v28.47c-9.32,4-17.82,2.72-27.1,1.33V895.92c36.15.72,73.92-4.49,96.61,30.65,16.64,25.76,16.7,55.66-.27,81.31C1511.28,1042.52,1473.91,1038.37,1437.7,1038.3Z" transform="translate(-377.46 -708.99)"/><path class="cls-2" d="M985.62,955.15c16.19,0,31.53.28,46.85-.1,10.47-.27,21-2.79,21.18-15.73.23-13.73-10.09-16.88-21.59-17-15.31-.13-30.62,0-46.53,0V896.73c19.65,0,38.85-1.26,57.8.36,18.36,1.57,32.71,11.45,36.58,30.61,4.38,21.67-2.52,39.22-24.47,49.39l27.22,60.23h-28.91l-25.69-54.48c-5.68-1.78-10.4-2.27-16.24,1.29v53.41h-26.2Z" transform="translate(-377.46 -708.99)"/><path class="cls-2" d="M896.41,896.85l66,0q.21,12.66.4,25.33H923.28l.15,31.8,57.06.34-.12,25.28-56.43.29q-.27,15.78-.53,31.57l39.46,0q.12,13,.22,26H896.41Z" transform="translate(-377.46 -708.99)"/><path class="cls-2" d="M889.52,1038H865.26c-5.08-7.75-.81-16.39-3.36-25.16H809.68v24.46H783V985.57h79.45V897h27.11Z" transform="translate(-377.46 -708.99)"/><path class="cls-2" d="M514.16,1037.87H486l56.22-145c19.55,50.26,37.73,97,56.38,144.95h-28l-28.35-78.63C532.24,987.29,523.38,1012.07,514.16,1037.87Z" transform="translate(-377.46 -708.99)"/><path class="cls-2" d="M1265.28,896.34h26.65v113.34c4.89,7.7,12,2.08,16.59,7.19v20.19h-58.68v-21.93l15.44-1.65Z" transform="translate(-377.46 -708.99)"/><path class="cls-2" d="M748.4,1037.88H723.49V948.94H748.4Z" transform="translate(-377.46 -708.99)"/><path class="cls-2" d="M777.83,897c1,8.37,2,15.33-.78,23.07H693.29V897Z" transform="translate(-377.46 -708.99)"/><path class="cls-2" d="M783.23,896.62H808V957.5H783.23Z" transform="translate(-377.46 -708.99)"/><circle class="cls-3" cx="636.48" cy="44.74" r="40.74"/><path class="cls-2" d="M1016.84,1063.25" transform="translate(-377.46 -708.99)"/><path class="cls-2" d="M1133.09,883.81" transform="translate(-377.46 -708.99)"/><circle class="cls-2" cx="636.48" cy="44.74" r="32.4"/><polygon class="cls-2" points="630.77 424.7 642.19 424.84 642.19 717.05 636.36 728.15 630.77 716.68 630.77 424.7"/><g id="_Mirror_Repeat_" data-name="&lt;Mirror Repeat&gt;"><g class="cls-4"><polygon class="cls-2" points="607.84 169.28 596.42 169.28 596.97 83.26 607.84 90.7 607.84 169.28"/><rect class="cls-2" x="996.7" y="802.99" width="11.42" height="75.29" transform="translate(1627.37 972.27) rotate(180)"/></g></g><g id="_Mirror_Repeat_2" data-name="&lt;Mirror Repeat&gt;"><g class="cls-5"><polygon class="cls-2" points="666.14 169.28 677.56 169.28 677.01 83.26 666.14 90.7 666.14 169.28"/><rect class="cls-2" x="643.31" y="94" width="11.42" height="75.29"/></g></g><g id="_Mirror_Repeat_3" data-name="&lt;Mirror Repeat&gt;"><g class="cls-6"><path class="cls-2" d="M1532,797.84a21.25,21.25,0,1,0,21.36,21.24A21.31,21.31,0,0,0,1532,797.84Zm0,30.1a8.86,8.86,0,1,1,8.91-8.86A8.88,8.88,0,0,1,1532,827.94Z" transform="translate(-377.46 -708.99)"/><path class="cls-2" d="M1435.8,749.8A21.25,21.25,0,1,0,1457.17,771,21.3,21.3,0,0,0,1435.8,749.8Zm0,30.1a8.86,8.86,0,1,1,8.91-8.86A8.88,8.88,0,0,1,1435.8,779.9Z" transform="translate(-377.46 -708.99)"/><polygon class="cls-2" points="760.97 81.11 760.97 69.7 1003.78 70.24 982.78 81.11 760.97 81.11"/><rect class="cls-2" x="1103.34" y="766.41" width="11.42" height="79.57" transform="translate(708.09 1468.12) rotate(-125.03)"/><rect class="cls-2" x="1073.09" y="823.7" width="11.42" height="54.57" transform="translate(1780.14 992.99) rotate(180)"/><rect class="cls-2" x="1257" y="700.96" width="11.42" height="212.52" transform="translate(78.03 1360.94) rotate(-90)"/><rect class="cls-2" x="1307.11" y="684.91" width="11.42" height="289.15" transform="translate(105.88 1433.31) rotate(-90)"/><rect class="cls-2" x="1293.56" y="737.14" width="11.42" height="230.33" transform="translate(69.51 1442.59) rotate(-90)"/><rect class="cls-2" x="1114.05" y="785.41" width="11.42" height="97.58" transform="translate(702.02 1520.96) rotate(-125.03)"/><rect class="cls-2" x="1387.3" y="764.05" width="11.42" height="60.17" transform="translate(944.01 1687.01) rotate(-117.13)"/><rect class="cls-2" x="1439.8" y="797.84" width="11.42" height="75.69" transform="translate(983.47 1794.23) rotate(-117.13)"/><rect class="cls-2" x="1487.91" y="802.03" width="11.42" height="34.11" transform="translate(297.07 1603.71) rotate(-90)"/><polygon class="cls-2" points="735.25 361.51 735.25 350.1 1272.95 350.64 1241.39 361.51 735.25 361.51"/><polygon class="cls-2" points="735.76 384.28 735.76 372.86 1177.84 373.41 1151.89 384.28 735.76 384.28"/><polygon class="cls-2" points="732.93 169.28 797.34 124.13 790.78 114.78 713.04 169.28 732.93 169.28"/><polygon class="cls-2" points="781.4 169.28 813.25 146.95 806.7 137.6 761.51 169.28 781.4 169.28"/><polygon class="cls-2" points="674.72 424.71 686.14 424.56 688.65 654.3 677.99 670.38 674.72 424.71"/></g></g><g id="_Mirror_Repeat_4" data-name="&lt;Mirror Repeat&gt;"><g class="cls-7"><path class="cls-2" d="M495.84,797.84a21.25,21.25,0,1,1-21.37,21.24A21.3,21.3,0,0,1,495.84,797.84Zm0,30.1a8.86,8.86,0,1,0-8.91-8.86A8.88,8.88,0,0,0,495.84,827.94Z" transform="translate(-377.46 -708.99)"/><path class="cls-2" d="M592.07,749.8A21.25,21.25,0,1,1,570.7,771,21.31,21.31,0,0,1,592.07,749.8Zm0,30.1a8.86,8.86,0,1,0-8.91-8.86A8.88,8.88,0,0,0,592.07,779.9Z" transform="translate(-377.46 -708.99)"/><polygon class="cls-2" points="511.98 81.11 511.98 69.7 269.17 70.24 290.17 81.11 511.98 81.11"/><rect class="cls-2" x="913.12" y="766.41" width="11.42" height="79.57" transform="translate(-646.21 386.78) rotate(-54.97)"/><rect class="cls-2" x="565.9" y="114.71" width="11.42" height="54.57"/><rect class="cls-2" x="759.45" y="700.96" width="11.42" height="212.52" transform="translate(-419.52 863.39) rotate(-90)"/><rect class="cls-2" x="709.35" y="684.91" width="11.42" height="289.15" transform="translate(-491.89 835.54) rotate(-90)"/><rect class="cls-2" x="722.89" y="737.14" width="11.42" height="230.33" transform="translate(-501.16 871.92) rotate(-90)"/><rect class="cls-2" x="902.41" y="785.41" width="11.42" height="97.58" transform="translate(-673.7 389.93) rotate(-54.97)"/><rect class="cls-2" x="629.16" y="764.05" width="11.42" height="60.17" transform="translate(-738.85 288.03) rotate(-62.87)"/><rect class="cls-2" x="576.66" y="797.84" width="11.42" height="75.69" transform="translate(-804.39 263.91) rotate(-62.87)"/><rect class="cls-2" x="528.55" y="802.03" width="11.42" height="34.11" transform="translate(-662.29 644.35) rotate(-90)"/><polygon class="cls-2" points="537.7 361.51 537.7 350.1 0 350.64 31.56 361.51 537.7 361.51"/><polygon class="cls-2" points="537.19 384.28 537.19 372.86 95.12 373.41 121.07 384.28 537.19 384.28"/><polygon class="cls-2" points="540.02 169.28 475.62 124.13 482.17 114.78 559.91 169.28 540.02 169.28"/><polygon class="cls-2" points="491.55 169.28 459.7 146.95 466.26 137.6 511.44 169.28 491.55 169.28"/><polygon class="cls-2" points="598.23 424.71 586.82 424.56 584.3 654.3 594.96 670.38 598.23 424.71"/></g></g><path class="cls-2" d="M990.72,1280.14c-9,0-16.38,7-16.38,15.67s7.34,15.67,16.38,15.67,16.39-7,16.39-15.67S999.77,1280.14,990.72,1280.14Zm6,15.67a5.66,5.66,0,0,1-1.77,4.09l-.43.37a6.18,6.18,0,0,1-3.85,1.32h0a6.13,6.13,0,0,1-3.84-1.32,5.2,5.2,0,0,1-.43-.37,5.62,5.62,0,0,1-1.77-4.09h0a5.62,5.62,0,0,1,1.77-4.09,5.3,5.3,0,0,1,.43-.38,6.19,6.19,0,0,1,3.84-1.32h0a6.24,6.24,0,0,1,3.85,1.32c.15.12.29.25.43.38a5.66,5.66,0,0,1,1.77,4.09Z" transform="translate(-377.46 -708.99)"/><path class="cls-2" d="M1036.3,1176c-9,0-16.39,7-16.39,15.67s7.34,15.67,16.39,15.67,16.38-7,16.38-15.67S1045.35,1176,1036.3,1176Zm5,18.9a5.46,5.46,0,0,1-1.17,1.23,6.13,6.13,0,0,1-3.84,1.32h0a6.27,6.27,0,0,1-1.8-.26,6.4,6.4,0,0,1-1.08-.43,5.93,5.93,0,0,1-2.69-2.84,4.87,4.87,0,0,1-.21-.53,5.61,5.61,0,0,1,0-3.44,4.87,4.87,0,0,1,.21-.53,5.93,5.93,0,0,1,2.69-2.84,6.43,6.43,0,0,1,1.08-.44,6.63,6.63,0,0,1,1.8-.26h0a6.14,6.14,0,0,1,3.84,1.33,5.46,5.46,0,0,1,1.17,1.23,5.54,5.54,0,0,1,0,6.46Z" transform="translate(-377.46 -708.99)"/><path class="cls-2" d="M604.55,897.15l66,0q.19,12.67.4,25.34H631.42q.08,15.88.14,31.79l57.07.34-.12,25.28-56.44.29q-.26,15.79-.53,31.57l39.47,0q.11,13,.22,26H604.55Z" transform="translate(-377.46 -708.99)"/><text class="cls-8" transform="translate(556.57 407.25)">S I C</text><rect class="cls-2" x="525.41" y="350.1" width="16.09" height="11.43"/><rect class="cls-2" x="526.24" y="372.89" width="16.09" height="11.43"/><polygon class="cls-2" points="608.39 424.71 618.97 424.77 618.97 573.28 613.14 576.43 607.54 572.77 608.39 424.71"/><polygon class="cls-2" points="653.07 424.77 663.65 424.64 664.36 473.21 658.54 474.32 652.93 473.21 653.07 424.77"/><g id="_Mirror_Repeat_5" data-name="&lt;Mirror Repeat&gt;"><g class="cls-9"><polygon class="cls-2" points="618.97 706.56 607.54 689.63 607.54 597.03 618.97 597.03 618.97 706.56"/></g></g><g id="_Mirror_Repeat_6" data-name="&lt;Mirror Repeat&gt;"><g class="cls-10"><polygon class="cls-2" points="653.98 706.56 665.41 689.63 665.41 597.03 653.98 597.03 653.98 706.56"/></g></g><polygon class="cls-2" points="665.41 670.38 653.98 643.3 653.98 495.29 665.41 495.29 665.41 670.38"/></svg>